<svg width="30" height="30" viewBox="0 0 30 30" fill="none" xmlns="http://www.w3.org/2000/svg">
<path fill-rule="evenodd" clip-rule="evenodd" d="M12.2737 1.25C6.18548 1.25 1.25 6.29049 1.25 12.5083C1.25 18.726 6.18548 23.7665 12.2737 23.7665C14.9167 23.7665 17.3425 22.8166 19.2415 21.2328L26.8237 28.4366C27.287 28.8768 28.0121 28.85 28.4431 28.3768C28.8741 27.9037 28.848 27.1632 28.3846 26.723L20.858 19.5721C22.3839 17.6405 23.2974 15.1833 23.2974 12.5083C23.2974 6.29049 18.362 1.25 12.2737 1.25ZM3.54167 12.5083C3.54167 7.58307 7.45113 3.59043 12.2737 3.59043C17.0963 3.59043 21.0057 7.58307 21.0057 12.5083C21.0057 17.4335 17.0963 21.4261 12.2737 21.4261C7.45113 21.4261 3.54167 17.4335 3.54167 12.5083Z" fill="black"/>
</svg>
